<svg id="Layer_1" data-name="Layer 1" xmlns="http://www.w3.org/2000/svg" viewBox="0 0 374.9 230.48"><defs><style>.cls-1{fill:#ec5d50;}</style></defs><title>favicon</title><path class="cls-1" d="M198.75,225.07c-33.38-2-58.15,5.84-85.41,24.39-32.1,21.85-59.36,55.62-76.17,90.4h99.14c14.86-25.9,31-51.42,52.34-72.46,20.26,21.43,38.58,45.51,50.83,72.46H340.13C311,289.07,262.1,229,198.76,225.07Zm-65,108.75H48.24c3.87-8.08,9.58-16.5,14.87-23.87,16.68-23.3,41.47-49.29,66.64-63.21,2.42-1.34,11.74-6.37,13.67-6.5,6.56-.42,39.73,15.78,39.73,22.63-19.06,21.6-38.15,44.05-49.35,71Z" transform="translate(-37.17 -109.38)"/><path class="cls-1" d="M312.93,109.38a375.29,375.29,0,0,1-51.35,72.48c-3.23,0-23.34-25.63-26.47-29.89-9.66-13.1-18.78-27.68-25.34-42.58H109.12c26,44.48,64.28,94.82,116,110,46.66,13.68,87.56.55,124-29.48a241,241,0,0,0,62.93-80.49H312.93Zm18.93,85.36c-4.54,3.16-21.43,14.29-26,14.32-4.91,0-20.59-7.15-25.35-9.93-2.77-1.63-14.53-9.57-14.27-12.58,10.62-13.06,22.32-25.54,31.88-39.61,6.91-10.19,12.12-21.23,18.81-31.51h84c1.16,1-14,22.74-15.71,25-14.73,20.24-32.83,39.92-53.42,54.27Z" transform="translate(-37.17 -109.38)"/></svg>