<?xml version="1.0" encoding="UTF-8"?>
<svg id="Layer_1" data-name="Layer 1" xmlns="http://www.w3.org/2000/svg" viewBox="0 0 1000 1000">
  <defs>
    <style>
      .cls-1 {
        fill: #fff8f0;
      }

      .cls-2 {
        fill: #ec5d50;
      }
    </style>
  </defs>
  <rect class="cls-1" width="1000" height="1000"/>
  <g>
    <path class="cls-2" d="M474.13,500.45c-33.38-2.05-58.15,5.84-85.41,24.39-32.1,21.85-59.36,55.62-76.17,90.4h99.14c14.86-25.9,30.97-51.42,52.34-72.46,20.26,21.43,38.58,45.51,50.83,72.46h100.65c-29.13-50.79-78.03-110.89-141.37-114.79ZM409.17,609.2h-85.55c3.87-8.08,9.58-16.5,14.87-23.87,16.68-23.3,41.47-49.29,66.64-63.21,2.42-1.34,11.74-6.37,13.67-6.5,6.56-.42,39.73,15.78,39.73,22.63-19.06,21.6-38.15,44.05-49.35,70.96Z"/>
    <path class="cls-2" d="M588.31,384.76c-14.33,26.07-31.32,50.53-51.35,72.48-3.23,0-23.34-25.63-26.47-29.89-9.66-13.1-18.78-27.68-25.34-42.58h-100.65c25.99,44.48,64.28,94.82,115.98,109.97,46.66,13.68,87.56.55,124.04-29.48,26.02-21.43,48.42-50.07,62.93-80.49h-99.14ZM607.24,470.12c-4.54,3.16-21.43,14.29-25.97,14.32-4.91.04-20.59-7.15-25.35-9.93-2.77-1.63-14.53-9.57-14.27-12.58,10.62-13.06,22.32-25.54,31.88-39.61,6.91-10.19,12.12-21.23,18.81-31.51h84.04c1.16,1.02-14.03,22.74-15.71,25.05-14.73,20.24-32.83,39.92-53.42,54.27Z"/>
  </g>
</svg>